<svg xmlns="http://www.w3.org/2000/svg" version="1.1" xmlns:xlink="http://www.w3.org/1999/xlink" xmlns:svgjs="http://svgjs.dev/svgjs" width="1500" height="1500" viewBox="0 0 1500 1500"><rect width="1500" height="1500" fill="#ffffff"></rect><g transform="matrix(0.6666666666666666,0,0,0.6666666666666666,249.39437105879807,593.8508152556524)"><svg viewBox="0 0 396 123" data-background-color="#ffffff" preserveAspectRatio="xMidYMid meet" height="465" width="1500" xmlns="http://www.w3.org/2000/svg" xmlns:xlink="http://www.w3.org/1999/xlink"><g id="tight-bounds" transform="matrix(1,0,0,1,0.23982906071597654,0.45596685017662253)"><svg viewBox="0 0 395.52 122.08786135655515" height="122.08786135655515" width="395.52"><g><svg viewBox="0 0 395.52 122.08786135655515" height="122.08786135655515" width="395.52"><g transform="matrix(1,0,0,1,0,63.40490254596988)"><svg viewBox="0 0 395.52 58.68295881058526" height="58.68295881058526" width="395.52"><g id="textblocktransform"><svg viewBox="0 0 395.52 58.68295881058526" height="58.68295881058526" width="395.52" id="textblock"><g><svg viewBox="0 0 395.52 58.68295881058526" height="58.68295881058526" width="395.52"><g transform="matrix(1,0,0,1,0,0)"><svg width="395.52" viewBox="1.0225799999999987 -13.791259999999998 309.52721847148104 45.92424121138286" height="58.68295881058526" data-palette-color="#5cb8f6"><path d="M1.023 11.915v0l3.243-3.258c0.533 0.578 1.186 1.151 1.96 1.722 0.774 0.57 1.818 1.003 3.132 1.298v0c1.724 0.387 3.13 0.423 4.219 0.107 1.089-0.316 1.75-0.99 1.982-2.024v0c0.168-0.748 0.024-1.413-0.434-1.994-0.464-0.582-1.087-1.136-1.871-1.661-0.786-0.518-1.639-1.038-2.561-1.559-0.923-0.515-1.757-1.088-2.503-1.721v0c-1.461-1.251-2.496-2.454-3.105-3.608-0.615-1.156-0.743-2.531-0.385-4.125v0c0.297-1.32 0.834-2.419 1.612-3.297 0.771-0.879 1.668-1.555 2.691-2.029 1.029-0.473 2.144-0.755 3.347-0.847 1.209-0.09 2.393-0.006 3.55 0.255v0c1.561 0.351 2.965 0.837 4.213 1.459 1.239 0.627 2.38 1.467 3.42 2.521v0l-2.699 3.483c-0.825-0.739-1.76-1.335-2.806-1.789-1.054-0.449-2.111-0.792-3.171-1.03v0c-1.158-0.26-2.133-0.209-2.925 0.152-0.787 0.37-1.303 1.101-1.548 2.194v0c-0.19 0.846-0.034 1.581 0.467 2.206 0.497 0.617 1.191 1.224 2.082 1.821 0.884 0.595 1.831 1.204 2.838 1.827 1.016 0.618 1.937 1.324 2.763 2.117 0.818 0.799 1.445 1.705 1.88 2.718 0.427 1.018 0.486 2.217 0.176 3.596v0c-0.303 1.346-0.833 2.461-1.592 3.343-0.758 0.882-1.664 1.55-2.715 2.003-1.058 0.452-2.218 0.701-3.478 0.746-1.26 0.045-2.564-0.084-3.91-0.387v0c-0.813-0.183-1.559-0.374-2.239-0.575-0.679-0.2-1.33-0.453-1.951-0.756-0.622-0.304-1.225-0.689-1.811-1.155-0.587-0.46-1.211-1.044-1.871-1.753zM53.56 5.22v0c0.119 1.519 0.016 3.177-0.309 4.975v0c-0.326 1.804-0.854 3.511-1.585 5.12-0.732 1.616-1.648 2.992-2.747 4.127-1.099 1.136-2.375 1.973-3.826 2.51-1.452 0.537-3.06 0.647-4.825 0.328v0c-0.951-0.172-1.853-0.433-2.704-0.782-0.845-0.349-1.585-0.75-2.222-1.204-0.635-0.46-1.147-0.928-1.535-1.405-0.388-0.477-0.589-0.943-0.601-1.399v0l-2.469 13.679-5.777-1.043 6.719-37.218 5.157 0.93 0.133 2.809c0.79-0.772 1.872-1.308 3.247-1.609 1.376-0.307 2.839-0.321 4.387-0.041v0c1.043 0.188 2.074 0.52 3.093 0.995 1.025 0.476 1.944 1.13 2.755 1.961 0.812 0.831 1.498 1.852 2.059 3.064 0.567 1.213 0.917 2.614 1.05 4.203zM39.171 17.489v0c0.945 0.171 1.847 0.09 2.706-0.243 0.861-0.339 1.642-0.859 2.345-1.558 0.697-0.707 1.304-1.594 1.821-2.659 0.517-1.065 0.89-2.227 1.117-3.487v0c0.223-1.233 0.292-2.427 0.209-3.579-0.089-1.161-0.315-2.215-0.679-3.161-0.364-0.946-0.875-1.74-1.531-2.38-0.65-0.639-1.464-1.047-2.442-1.224v0c-0.945-0.171-1.857-0.091-2.736 0.238-0.874 0.337-1.665 0.854-2.373 1.553-0.716 0.704-1.324 1.573-1.823 2.608-0.498 1.035-0.862 2.185-1.09 3.451v0c-0.227 1.26-0.308 2.475-0.241 3.645 0.066 1.17 0.292 2.231 0.675 3.181 0.384 0.95 0.908 1.746 1.571 2.387 0.67 0.643 1.494 1.052 2.471 1.228zM73.415-0.611v0c1.844 0.245 3.464 0.827 4.862 1.746 1.399 0.912 2.541 2.06 3.426 3.442 0.886 1.376 1.507 2.931 1.861 4.666 0.349 1.728 0.396 3.546 0.142 5.457v0c-0.253 1.903-0.792 3.651-1.615 5.242-0.83 1.591-1.875 2.925-3.135 4.002-1.26 1.077-2.689 1.858-4.287 2.345-1.604 0.479-3.328 0.596-5.172 0.351v0c-1.877-0.25-3.538-0.827-4.985-1.732-1.453-0.906-2.63-2.048-3.529-3.425-0.899-1.384-1.526-2.94-1.881-4.669-0.354-1.735-0.403-3.571-0.145-5.507 0.258-1.943 0.81-3.716 1.656-5.318 0.845-1.603 1.896-2.926 3.151-3.97 1.256-1.05 2.709-1.812 4.359-2.285 1.651-0.48 3.415-0.595 5.292-0.345zM70.001 22.097v0c0.958 0.127 1.858 0.012 2.699-0.347 0.835-0.36 1.587-0.905 2.256-1.637 0.663-0.739 1.234-1.645 1.713-2.718 0.485-1.065 0.811-2.232 0.98-3.501v0c0.17-1.275 0.176-2.488 0.02-3.639-0.149-1.156-0.432-2.189-0.849-3.099-0.41-0.915-0.964-1.678-1.662-2.289-0.692-0.61-1.518-0.979-2.476-1.106v0c-0.952-0.127-1.856-0.005-2.712 0.365-0.863 0.369-1.626 0.924-2.289 1.663-0.663 0.739-1.22 1.637-1.67 2.693-0.45 1.057-0.759 2.219-0.928 3.488v0c-0.17 1.275-0.194 2.496-0.073 3.663 0.121 1.166 0.397 2.198 0.829 3.096 0.432 0.898 0.988 1.651 1.666 2.259 0.679 0.608 1.511 0.978 2.496 1.109zM107.699 2.97l-0.557 6.034c-0.866-0.341-1.938-0.584-3.217-0.729v0c-1.148-0.106-2.303-0.079-3.462 0.083-1.16 0.167-2.105 0.542-2.836 1.124v0l-0.947 10.256-0.008 0.09-0.876 9.489-5.795-0.535 2.495-27.025 5.178 0.478 0.361 2.835c0.522-0.434 1.066-0.819 1.633-1.154 0.56-0.337 1.203-0.592 1.928-0.766 0.726-0.174 1.572-0.28 2.54-0.318 0.974-0.037 2.162 0.009 3.563 0.138zM120.956 7.868l-0.903 14.943c-0.066 1.091 0.026 1.948 0.275 2.571 0.249 0.63 0.63 1.12 1.143 1.472 0.506 0.351 1.087 0.587 1.741 0.706 0.647 0.119 1.34 0.201 2.079 0.246v0l-0.215 3.553c-0.417 0.042-0.835 0.063-1.256 0.065v0c-0.355 0.012-0.782 0.013-1.282 0.002-0.493-0.016-0.979-0.039-1.459-0.068v0c-0.486-0.029-0.974-0.076-1.464-0.138-0.497-0.063-0.92-0.136-1.27-0.217v0c-1.073-0.259-1.893-0.782-2.459-1.572-0.56-0.789-0.966-1.648-1.217-2.578-0.251-0.937-0.39-1.837-0.418-2.7-0.028-0.87-0.027-1.548 0.003-2.033v0l0.882-14.604-3.553-0.214 0.237-3.933 3.554 0.214 0.464-7.685 5.82 0.351-0.465 7.686 4.322 0.261-0.237 3.933zM157.318 4.512v0c2.18 0.008 4.102 0.454 5.765 1.34 1.664 0.893 3.033 2.071 4.108 3.534 1.068 1.464 1.832 3.15 2.292 5.059 0.453 1.908 0.533 3.889 0.239 5.94v0l-18.86-0.066c-0.004 1.027 0.183 1.974 0.56 2.842 0.384 0.868 0.904 1.617 1.562 2.245 0.651 0.629 1.436 1.122 2.355 1.479 0.912 0.357 1.895 0.537 2.948 0.54v0c0.353 0.001 0.797-0.037 1.33-0.115 0.527-0.078 1.087-0.223 1.682-0.434 0.594-0.205 1.188-0.466 1.783-0.784 0.594-0.318 1.119-0.703 1.574-1.154v0l2.098 3.237c-1.058 1.31-2.295 2.299-3.71 2.967-1.416 0.668-3.214 0.999-5.394 0.991v0c-1.767-0.006-3.419-0.372-4.956-1.098-1.537-0.725-2.847-1.717-3.929-2.974-1.089-1.257-1.95-2.72-2.585-4.389-0.641-1.669-0.958-3.467-0.951-5.393v0c0.007-1.893 0.336-3.682 0.989-5.367 0.646-1.678 1.508-3.141 2.585-4.391 1.078-1.25 2.358-2.232 3.841-2.946 1.476-0.715 3.034-1.069 4.674-1.064zM151.067 16.09l13.28 0.046c0.003-0.867-0.154-1.717-0.471-2.551-0.317-0.834-0.754-1.593-1.312-2.275-0.564-0.675-1.246-1.214-2.045-1.617-0.799-0.403-1.664-0.623-2.597-0.659v0c-0.993-0.004-1.907 0.187-2.742 0.57-0.835 0.384-1.56 0.894-2.176 1.532-0.609 0.638-1.085 1.4-1.428 2.285-0.336 0.879-0.506 1.768-0.509 2.669zM194.246 31.096l-7.543 0.343-10.762-26.868 6.583-0.3 7.761 22.29 5.705-22.903 6.533-0.297zM219.659 1.47v0c2.171-0.199 4.126 0.064 5.867 0.788 1.741 0.731 3.215 1.774 4.424 3.129 1.202 1.356 2.123 2.962 2.761 4.818 0.632 1.857 0.899 3.821 0.801 5.892v0l-18.781 1.721c0.094 1.022 0.369 1.948 0.827 2.776 0.464 0.828 1.053 1.524 1.768 2.088 0.708 0.564 1.536 0.981 2.484 1.248 0.942 0.269 1.937 0.355 2.986 0.259v0c0.352-0.032 0.79-0.113 1.313-0.241 0.517-0.128 1.061-0.325 1.633-0.592 0.572-0.26 1.139-0.576 1.701-0.949 0.562-0.373 1.048-0.806 1.457-1.298v0l2.396 3.024c-0.929 1.404-2.067 2.506-3.412 3.305-1.346 0.8-3.104 1.299-5.276 1.498v0c-1.759 0.161-3.439-0.046-5.038-0.623-1.599-0.576-2.997-1.439-4.193-2.588-1.203-1.148-2.199-2.523-2.989-4.125-0.796-1.601-1.282-3.36-1.458-5.279v0c-0.173-1.885-0.014-3.697 0.476-5.436 0.484-1.731 1.203-3.27 2.158-4.616 0.954-1.346 2.136-2.445 3.544-3.297 1.401-0.851 2.919-1.352 4.551-1.502zM214.534 13.588l13.225-1.212c-0.079-0.863-0.316-1.695-0.711-2.495-0.395-0.801-0.902-1.514-1.522-2.14-0.626-0.619-1.355-1.091-2.188-1.416-0.833-0.325-1.716-0.462-2.649-0.41v0c-0.989 0.091-1.881 0.367-2.675 0.827-0.795 0.461-1.468 1.038-2.021 1.732-0.546 0.693-0.947 1.496-1.205 2.41-0.252 0.907-0.336 1.808-0.254 2.704zM265.377 22.447l0.131 0.951-5.815 0.803-2.021-14.631c-0.15-1.083-0.339-2.11-0.568-3.081-0.235-0.97-0.581-1.814-1.036-2.532-0.455-0.711-1.013-1.24-1.673-1.586-0.66-0.346-1.532-0.444-2.615-0.295v0c-0.35 0.048-0.796 0.157-1.338 0.327-0.541 0.176-1.093 0.397-1.655 0.662-0.568 0.274-1.093 0.592-1.574 0.955-0.482 0.356-0.826 0.743-1.03 1.162v0l0.039 0.287 0.013 0.089 1.463 10.59 0.012 0.089 1.305 9.44-5.765 0.797-3.716-26.885 5.151-0.712 0.99 2.63c0.335-0.403 0.771-0.827 1.308-1.271 0.537-0.451 1.135-0.867 1.796-1.248 0.661-0.381 1.342-0.71 2.044-0.989 0.709-0.273 1.414-0.458 2.114-0.555v0c1.433-0.198 2.683-0.065 3.75 0.401 1.068 0.472 2.16 1.115 3.275 1.93v0c0.616 0.467 1.126 1.036 1.528 1.706 0.397 0.679 0.721 1.394 0.973 2.147 0.253 0.759 0.448 1.536 0.585 2.332 0.143 0.788 0.266 1.562 0.371 2.321v0zM277.494-2.333l2.637 14.735c0.193 1.076 0.484 1.888 0.873 2.435 0.39 0.553 0.876 0.94 1.458 1.161 0.575 0.222 1.194 0.315 1.857 0.277 0.657-0.036 1.35-0.12 2.079-0.25v0l0.627 3.504c-0.395 0.138-0.797 0.258-1.206 0.358v0c-0.342 0.095-0.757 0.197-1.246 0.305-0.483 0.1-0.961 0.192-1.433 0.277v0c-0.479 0.086-0.964 0.156-1.456 0.209-0.498 0.055-0.926 0.085-1.285 0.088v0c-1.104 0.001-2.024-0.315-2.76-0.948-0.73-0.635-1.326-1.374-1.789-2.22-0.464-0.852-0.811-1.694-1.041-2.526-0.231-0.839-0.39-1.498-0.476-1.977v0l-2.578-14.401-3.504 0.627-0.695-3.878 3.505-0.627-1.357-7.58 5.739-1.027 1.356 7.579 4.263-0.763 0.694 3.879zM293.181 16.017v0l1.585-4.315c0.726 0.302 1.559 0.55 2.5 0.745 0.941 0.195 2.07 0.152 3.388-0.129v0c1.728-0.368 3.021-0.923 3.878-1.665 0.858-0.742 1.176-1.631 0.955-2.668v0c-0.16-0.75-0.569-1.293-1.227-1.63-0.665-0.336-1.463-0.578-2.394-0.727-0.93-0.143-1.923-0.258-2.978-0.347-1.054-0.082-2.051-0.255-2.994-0.517v0c-1.85-0.526-3.293-1.186-4.328-1.981-1.042-0.794-1.733-1.989-2.073-3.587v0c-0.282-1.324-0.253-2.547 0.087-3.669 0.334-1.121 0.866-2.11 1.596-2.968 0.737-0.859 1.633-1.582 2.687-2.167 1.061-0.587 2.172-1.005 3.333-1.253v0c1.565-0.334 3.044-0.478 4.436-0.434 1.388 0.052 2.775 0.339 4.161 0.861v0l-0.997 4.293c-1.058-0.327-2.157-0.477-3.296-0.453-1.145 0.033-2.249 0.162-3.312 0.389v0c-1.161 0.247-2.025 0.701-2.593 1.36-0.56 0.665-0.724 1.545-0.491 2.641v0c0.181 0.848 0.63 1.451 1.347 1.809 0.709 0.353 1.593 0.615 2.652 0.784 1.052 0.171 2.166 0.329 3.342 0.474 1.181 0.137 2.313 0.393 3.395 0.769 1.077 0.384 2.025 0.945 2.843 1.684 0.814 0.747 1.368 1.811 1.663 3.194v0c0.288 1.35 0.271 2.584-0.05 3.701-0.321 1.118-0.864 2.103-1.63 2.955-0.772 0.853-1.722 1.563-2.848 2.131-1.126 0.567-2.365 0.995-3.714 1.282v0c-0.815 0.174-1.573 0.311-2.274 0.413-0.701 0.102-1.397 0.144-2.089 0.129-0.692-0.016-1.401-0.114-2.128-0.293-0.725-0.173-1.536-0.443-2.432-0.811z" opacity="1" transform="matrix(1,0,0,1,0,0)" fill="#5cb8f6" class="wordmark-text-0" data-fill-palette-color="primary" id="text-0"></path></svg></g></svg></g></svg></g></svg></g><g transform="matrix(1,0,0,1,168.84222426843002,0)"><svg viewBox="0 0 57.83555146313997 58.68295881058526" height="58.68295881058526" width="57.83555146313997"><g><svg xmlns="http://www.w3.org/2000/svg" xmlns:xlink="http://www.w3.org/1999/xlink" version="1.1" x="0" y="0" viewBox="17.7 17.3 54.599999999999994 55.400000000000006" enable-background="new 0 0 90 90" xml:space="preserve" height="58.68295881058526" width="57.83555146313997" class="icon-icon-0" data-fill-palette-color="accent" id="icon-0"><path fill="#5cb8f6" d="M72.3 32.2V65C72.3 69.3 68.8 72.7 64.6 72.7H25.4C21.1 72.7 17.7 69.2 17.7 65V32.2C17.7 27.9 21.2 24.5 25.4 24.5H28V32C28 35.1 30.5 37.6 33.6 37.6S39.2 35.1 39.2 32V24.5H51.4V32C51.4 35.1 53.9 37.6 57 37.6S62.6 35.1 62.6 32V24.5H64.7C68.8 24.5 72.3 27.9 72.3 32.2M70 38.6H20V65C20 68 22.4 70.4 25.4 70.4H64.6C67.6 70.4 70 68 70 65zM33.6 35.4C35.5 35.4 37 33.9 37 32V20.7C37 18.8 35.5 17.3 33.6 17.3S30.2 18.8 30.2 20.7V32C30.2 33.9 31.7 35.4 33.6 35.4M57 35.4C58.9 35.4 60.4 33.9 60.4 32V20.7C60.4 18.8 58.9 17.3 57 17.3S53.6 18.8 53.6 20.7V32C53.5 33.9 55.1 35.4 57 35.4M57.5 45.8C56.5 44.8 54.8 44.8 53.8 45.8L41.6 57.9 36.2 52.5C35.2 51.5 33.5 51.5 32.5 52.5S31.5 55.2 32.5 56.2L39.7 63.4C40.2 63.9 40.9 64.2 41.5 64.2S42.8 63.9 43.3 63.4L57.3 49.4C58.5 48.4 58.5 46.8 57.5 45.8" data-fill-palette-color="accent"></path></svg></g></svg></g><g></g></svg></g><defs></defs></svg><rect width="395.52" height="122.08786135655515" fill="none" stroke="none" visibility="hidden"></rect></g></svg></g></svg>